HIERARCHY
ROOT Haolin_28_06:Solving:Hips
{
	OFFSET 0.000000 0.000000 0.000000
	CHANNELS 6 Xposition Yposition Zposition Xrotation Yrotation Zrotation
	JOINT Haolin_28_06:Solving:Spine
	{
		OFFSET 0.000000 -12.181966 2.015561
		CHANNELS 6 Xposition Yposition Zposition Xrotation Yrotation Zrotation
		JOINT Haolin_28_06:Solving:Spine1
		{
			OFFSET 0.000000 -8.890296 1.567602
			CHANNELS 6 Xposition Yposition Zposition Xrotation Yrotation Zrotation
			JOINT Haolin_28_06:Solving:Spine2
			{
				OFFSET 0.000000 -8.993092 0.786796
				CHANNELS 6 Xposition Yposition Zposition Xrotation Yrotation Zrotation
				JOINT Haolin_28_06:Solving:Spine3
				{
					OFFSET 0.000000 -9.027443 0.000000
					CHANNELS 6 Xposition Yposition Zposition Xrotation Yrotation Zrotation
					JOINT Haolin_28_06:Solving:Neck
					{
						OFFSET 0.000000 -11.606712 -1.160669
						CHANNELS 6 Xposition Yposition Zposition Xrotation Yrotation Zrotation
						JOINT Haolin_28_06:Solving:Neck1
						{
							OFFSET 0.000000 -7.471592 -0.653680
							CHANNELS 6 Xposition Yposition Zposition Xrotation Yrotation Zrotation
							JOINT Haolin_28_06:Solving:Head
							{
								OFFSET 0.000000 -7.386181 -1.302382
								CHANNELS 6 Xposition Yposition Zposition Xrotation Yrotation Zrotation
								JOINT Haolin_28_06:Solving:HeadEnd
								{
									OFFSET 0.000000 -9.728081 0.000002
									CHANNELS 6 Xposition Yposition Zposition Xrotation Yrotation Zrotation
									End Site
									{
										OFFSET 0.000000 -9.728081 0.000002
									}
								}
							}
						}
					}
					JOINT Haolin_28_06:Solving:RightShoulder
					{
						OFFSET 0.000000 -8.290508 -5.270916
						CHANNELS 6 Xposition Yposition Zposition Xrotation Yrotation Zrotation
						JOINT Haolin_28_06:Solving:RightArm
						{
							OFFSET -19.261074 -0.000008 0.000000
							CHANNELS 6 Xposition Yposition Zposition Xrotation Yrotation Zrotation
							JOINT Haolin_28_06:Solving:RightForeArm
							{
								OFFSET -30.691700 -0.000011 0.000000
								CHANNELS 6 Xposition Yposition Zposition Xrotation Yrotation Zrotation
								JOINT Haolin_28_06:Solving:RightHand
								{
									OFFSET -20.216934 -0.000008 0.000000
									CHANNELS 6 Xposition Yposition Zposition Xrotation Yrotation Zrotation
									JOINT Haolin_28_06:Solving:RightHandThumb1
									{
										OFFSET -4.948814 2.881329 -3.679893
										CHANNELS 6 Xposition Yposition Zposition Xrotation Yrotation Zrotation
										End Site
										{
											OFFSET -7.039886 -0.000004 -7.104978
										}
									}
									JOINT Haolin_28_06:Solving:RightHandMiddle1
									{
										OFFSET -13.196846 -0.000004 0.084595
										CHANNELS 6 Xposition Yposition Zposition Xrotation Yrotation Zrotation
										End Site
										{
											OFFSET -10.002037 -0.000004 0.000000
										}
									}
								}
							}
						}
					}
					JOINT Haolin_28_06:Solving:LeftShoulder
					{
						OFFSET 0.000000 -8.290508 -5.270916
						CHANNELS 6 Xposition Yposition Zposition Xrotation Yrotation Zrotation
						JOINT Haolin_28_06:Solving:LeftArm
						{
							OFFSET 19.261074 -0.000008 0.000000
							CHANNELS 6 Xposition Yposition Zposition Xrotation Yrotation Zrotation
							JOINT Haolin_28_06:Solving:LeftForeArm
							{
								OFFSET 30.691700 -0.000011 0.000000
								CHANNELS 6 Xposition Yposition Zposition Xrotation Yrotation Zrotation
								JOINT Haolin_28_06:Solving:LeftHand
								{
									OFFSET 20.216934 -0.000008 0.000000
									CHANNELS 6 Xposition Yposition Zposition Xrotation Yrotation Zrotation
									JOINT Haolin_28_06:Solving:LeftHandThumb1
									{
										OFFSET 4.948814 2.881329 -3.679893
										CHANNELS 6 Xposition Yposition Zposition Xrotation Yrotation Zrotation
										End Site
										{
											OFFSET 7.039886 -0.000004 -7.104978
										}
									}
									JOINT Haolin_28_06:Solving:LeftHandMiddle1
									{
										OFFSET 13.196846 -0.000004 0.084595
										CHANNELS 6 Xposition Yposition Zposition Xrotation Yrotation Zrotation
										End Site
										{
											OFFSET 10.002037 -0.000004 0.000000
										}
									}
								}
							}
						}
					}
				}
			}
		}
	}
	JOINT Haolin_28_06:Solving:RightUpLeg
	{
		OFFSET -10.083070 0.000000 0.000000
		CHANNELS 6 Xposition Yposition Zposition Xrotation Yrotation Zrotation
		JOINT Haolin_28_06:Solving:RightLeg
		{
			OFFSET 0.000000 47.042522 -0.000008
			CHANNELS 6 Xposition Yposition Zposition Xrotation Yrotation Zrotation
			JOINT Haolin_28_06:Solving:RightFoot
			{
				OFFSET 0.000000 38.766415 -0.000006
				CHANNELS 6 Xposition Yposition Zposition Xrotation Yrotation Zrotation
				JOINT Haolin_28_06:Solving:RightForeFoot
				{
					OFFSET 0.000000 3.531212 -0.000000
					CHANNELS 6 Xposition Yposition Zposition Xrotation Yrotation Zrotation
					JOINT Haolin_28_06:Solving:RightToeBase
					{
						OFFSET 0.000000 0.000000 -13.829352
						CHANNELS 6 Xposition Yposition Zposition Xrotation Yrotation Zrotation
						JOINT Haolin_28_06:Solving:RightToeBaseEnd
						{
							OFFSET 0.000000 0.000000 -4.034167
							CHANNELS 6 Xposition Yposition Zposition Xrotation Yrotation Zrotation
							End Site
							{
								OFFSET 0.000000 -4.034164 0.000004
							}
						}
					}
				}
			}
		}
	}
	JOINT Haolin_28_06:Solving:LeftUpLeg
	{
		OFFSET 10.083070 0.000000 0.000000
		CHANNELS 6 Xposition Yposition Zposition Xrotation Yrotation Zrotation
		JOINT Haolin_28_06:Solving:LeftLeg
		{
			OFFSET 0.000000 47.042522 -0.000008
			CHANNELS 6 Xposition Yposition Zposition Xrotation Yrotation Zrotation
			JOINT Haolin_28_06:Solving:LeftFoot
			{
				OFFSET 0.000000 38.766415 -0.000006
				CHANNELS 6 Xposition Yposition Zposition Xrotation Yrotation Zrotation
				JOINT Haolin_28_06:Solving:LeftForeFoot
				{
					OFFSET 0.000000 3.531212 -0.000000
					CHANNELS 6 Xposition Yposition Zposition Xrotation Yrotation Zrotation
					JOINT Haolin_28_06:Solving:LeftToeBase
					{
						OFFSET 0.000000 0.000000 -13.829352
						CHANNELS 6 Xposition Yposition Zposition Xrotation Yrotation Zrotation
						JOINT Haolin_28_06:Solving:LeftToeBaseEnd
						{
							OFFSET 0.000000 0.000000 -4.855067
							CHANNELS 6 Xposition Yposition Zposition Xrotation Yrotation Zrotation
							End Site
							{
								OFFSET 0.000000 -4.855064 0.000004
							}
						}
					}
				}
			}
		}
	}
}
MOTION
Frames: 5
Frame Time: 0.041667
-6.705232 41.911415 -94.468842 77.742559 0.782089 -0.336425 0.000001 -12.181998 2.015551 17.554182 -0.512796 -5.129144 0.000003 -8.890321 1.567601 0.314114 0.062869 -0.585566 0.000001 -8.993091 0.786786 -0.266893 0.650049 0.351962 0.000000 -9.027460 -0.000005 1.376498 -0.744785 2.845617 -0.000001 -11.606740 -1.160645 -6.938367 1.114733 0.186841 -0.000000 -7.471596 -0.653681 -0.026619 -2.703895 -1.236663 0.000003 -7.386168 -1.302385 7.009367 -0.048441 -1.445818 -0.000001 -9.728096 0.000005 0.000000 -0.000000 0.000000 0.000002 -8.290539 -5.270888 -0.000017 18.627377 5.808663 -19.261066 0.000004 0.000005 -12.004842 -52.426377 -93.480660 -30.691694 -0.000023 0.000002 -8.444295 -17.636250 -2.575342 -20.216923 -0.000004 0.000005 1.289386 -10.307466 7.169604 -4.948783 2.881329 -3.679901 0.000002 0.000005 0.000002 -13.196809 -0.000013 0.084567 0.000001 -0.000002 -0.000002 0.000002 -8.290535 -5.270888 -0.000010 -8.227390 -4.149771 19.261078 0.000008 0.000011 -10.191557 31.584898 91.580474 30.691696 -0.000010 -0.000008 11.696567 15.670921 -3.200671 20.216909 -0.000007 -0.000006 -0.368473 -13.183900 -1.615154 4.948816 2.881324 -3.679876 -0.000002 0.000007 -0.000006 13.196854 -0.000001 0.084605 -0.000001 0.000002 -0.000000 -10.083069 -0.000028 -0.000003 15.975420 6.426587 -3.300000 -0.000004 47.042526 -0.000011 -6.522466 0.000000 0.000001 0.000003 38.766415 -0.000002 9.335098 11.710446 -4.425476 -0.000001 3.531212 0.000009 -0.000001 -0.000003 0.000001 -0.000001 0.000011 -13.829354 -6.886384 -0.000003 -0.000000 -0.000001 0.000000 -4.034179 -0.000000 -0.000001 0.000000 10.083072 -0.000028 -0.000010 6.283365 -6.026538 -4.016113 0.000000 47.042526 -0.000002 11.255143 -0.000001 -0.000002 -0.000002 38.766407 -0.000008 3.343331 -4.808307 7.506153 0.000001 3.531212 0.000002 0.000001 -0.000001 -0.000000 0.000001 0.000001 -13.829342 -0.962503 -0.000002 -0.000001 -0.000001 -0.000007 -4.855065 0.000001 -0.000000 -0.000000 
-6.721901 41.866417 -94.461548 77.703661 0.802777 -0.259492 0.000000 -12.181946 2.015548 17.680599 -0.557659 -5.142097 -0.000001 -8.890278 1.567599 0.305582 0.071280 -0.605293 -0.000004 -8.993099 0.786782 -0.322109 0.769088 0.321527 0.000001 -9.027472 0.000002 1.326708 -0.709482 2.799522 0.000001 -11.606665 -1.160661 -6.910490 1.165181 0.196243 -0.000001 -7.471560 -0.653676 -0.032306 -2.832015 -1.224987 -0.000001 -7.386196 -1.302383 7.013127 -0.059991 -1.416568 -0.000000 -9.728096 -0.000001 0.000001 -0.000000 0.000001 0.000000 -8.290497 -5.270911 -0.000015 18.619138 5.930167 -19.261074 -0.000012 0.000000 -11.581569 -53.082345 -92.507262 -30.691717 -0.000017 -0.000003 -9.342340 -18.038852 -2.916358 -20.216911 0.000001 0.000002 1.321825 -11.228915 6.757676 -4.948796 2.881324 -3.679888 0.000001 0.000007 0.000004 -13.196834 -0.000016 0.084582 0.000000 -0.000001 0.000006 0.000000 -8.290489 -5.270911 -0.000010 -8.387057 -4.158865 19.261068 0.000005 0.000001 -10.204198 34.278865 91.272740 30.691710 -0.000007 0.000002 13.395850 16.606992 -3.893909 20.216919 -0.000028 0.000002 -0.636207 -13.234513 -2.776841 4.948783 2.881319 -3.679873 -0.000001 -0.000005 -0.000002 13.196838 0.000003 0.084603 0.000003 -0.000001 -0.000000 -10.083073 0.000026 -0.000011 15.925865 6.327558 -3.385652 -0.000001 47.042542 -0.000011 -6.403604 0.000000 0.000000 0.000002 38.766426 0.000001 9.348889 11.749196 -4.302137 0.000002 3.531219 -0.000009 -0.000000 0.000000 0.000001 0.000000 0.000027 -13.829362 -6.896188 -0.000000 -0.000002 -0.000003 -0.000000 -4.034163 -0.000000 0.000002 0.000001 10.083072 0.000016 -0.000018 6.181527 -6.192803 -4.119745 0.000001 47.042526 0.000003 11.458324 -0.000001 -0.000001 0.000000 38.766426 -0.000006 3.223242 -4.749782 7.495028 -0.000001 3.531204 -0.000003 0.000002 0.000001 -0.000000 0.000005 0.000009 -13.829352 -0.760716 -0.000000 -0.000001 -0.000001 0.000008 -4.855058 0.000001 0.000001 -0.000000 
-6.756531 41.810196 -94.452759 77.656642 0.975982 -0.138425 0.000002 -12.181991 2.015558 17.830793 -0.553995 -5.138219 -0.000001 -8.890317 1.567600 0.336746 0.070864 -0.598398 0.000002 -8.993114 0.786807 -0.398555 0.772888 0.258051 -0.000001 -9.027449 -0.000007 1.243902 -0.715511 2.697191 0.000000 -11.606728 -1.160692 -6.818363 1.133758 0.246741 0.000001 -7.471555 -0.653686 -0.056831 -2.909353 -1.209139 -0.000001 -7.386169 -1.302380 7.001714 -0.067224 -1.391602 0.000000 -9.728111 -0.000003 -0.000000 -0.000000 -0.000000 0.000002 -8.290543 -5.270925 -0.000012 18.563524 6.107274 -19.261068 0.000011 -0.000007 -11.120631 -54.023508 -91.438133 -30.691702 -0.000017 -0.000007 -11.259700 -18.443843 -3.604103 -20.216948 -0.000018 0.000012 1.279139 -12.051361 6.104268 -4.948770 2.881319 -3.679883 -0.000003 0.000007 -0.000001 -13.196813 -0.000006 0.084590 -0.000001 0.000001 0.000003 0.000003 -8.290539 -5.270925 -0.000006 -8.114324 -4.313857 19.261078 0.000012 -0.000004 -10.709784 30.968508 91.384776 30.691704 -0.000013 -0.000002 18.339107 15.597034 -5.092958 20.216934 -0.000010 -0.000003 -0.096312 -11.056902 -0.502131 4.948812 2.881322 -3.679887 0.000001 0.000005 -0.000002 13.196854 -0.000003 0.084591 0.000003 0.000001 -0.000000 -10.083070 -0.000016 0.000000 15.829460 6.131919 -3.476176 -0.000002 47.042530 -0.000008 -6.221588 -0.000000 0.000001 0.000001 38.766434 -0.000004 9.344845 11.710276 -4.126959 0.000001 3.531212 -0.000002 -0.000001 0.000003 -0.000000 0.000001 0.000002 -13.829351 -6.826792 -0.000003 -0.000000 -0.000007 -0.000000 -4.034173 -0.000000 0.000002 0.000000 10.083073 -0.000001 -0.000006 6.148684 -6.464634 -4.261847 -0.000001 47.042538 0.000002 11.577517 0.000000 -0.000001 -0.000002 38.766415 -0.000006 3.001418 -4.846424 7.624110 0.000001 3.531204 -0.000015 0.000002 -0.000000 0.000001 -0.000001 0.000003 -13.829362 -0.801018 0.000001 -0.000000 0.000001 -0.000008 -4.855066 0.000000 0.000001 0.000000 
-6.800594 41.774349 -94.445122 77.591762 1.233039 -0.039109 0.000003 -12.181969 2.015561 17.953350 -0.534315 -5.097753 -0.000001 -8.890303 1.567604 0.366093 0.068951 -0.594809 -0.000003 -8.993109 0.786795 -0.452232 0.721137 0.209077 0.000002 -9.027452 -0.000002 1.177003 -0.703270 2.578291 0.000001 -11.606693 -1.160656 -6.692650 1.017740 0.351088 -0.000001 -7.471581 -0.653686 -0.062927 -2.940723 -1.201854 -0.000000 -7.386229 -1.302395 6.975978 -0.069574 -1.383416 0.000001 -9.728119 0.000001 -0.000000 -0.000000 0.000001 0.000002 -8.290489 -5.270912 -0.000015 18.408386 6.299878 -19.261070 0.000014 0.000006 -10.739995 -54.447693 -90.453582 -30.691704 -0.000001 0.000005 -12.681862 -18.610285 -4.107516 -20.216932 -0.000002 0.000000 1.069305 -12.798636 4.816208 -4.948847 2.881328 -3.679860 0.000001 -0.000002 0.000006 -13.196874 -0.000002 0.084605 0.000001 0.000002 0.000003 0.000002 -8.290485 -5.270912 -0.000010 -8.222616 -4.289253 19.261072 0.000026 -0.000001 -10.673644 32.560748 90.799661 30.691698 -0.000012 -0.000002 18.206827 16.198553 -5.242570 20.216915 -0.000017 -0.000009 -0.080269 -9.968196 -0.463692 4.948843 2.881321 -3.679882 -0.000007 -0.000005 -0.000002 13.196869 -0.000011 0.084598 -0.000008 0.000000 0.000000 -10.083067 0.000004 0.000002 15.784904 5.716679 -3.512625 -0.000000 47.042515 -0.000005 -6.121840 0.000001 0.000000 0.000002 38.766430 -0.000009 9.353229 11.865653 -4.127453 0.000000 3.531204 0.000000 -0.000001 0.000004 -0.000000 -0.000001 0.000025 -13.829353 -6.758797 -0.000001 0.000002 -0.000005 -0.000000 -4.034167 -0.000000 0.000003 0.000000 10.083070 -0.000007 -0.000006 6.193473 -6.736002 -4.372460 -0.000000 47.042515 0.000015 11.636441 0.000000 -0.000001 0.000002 38.766411 -0.000014 2.837604 -4.998937 7.772812 -0.000000 3.531219 -0.000014 0.000001 0.000001 -0.000001 0.000004 0.000001 -13.829356 -0.926272 -0.000000 -0.000001 0.000000 -0.000008 -4.855053 0.000000 0.000001 0.000000 
-6.855216 41.754112 -94.434975 77.560302 1.467161 0.053778 -0.000001 -12.181970 2.015564 17.983640 -0.510275 -5.055525 -0.000001 -8.890301 1.567599 0.377020 0.064836 -0.582676 0.000003 -8.993079 0.786807 -0.486851 0.685865 0.148037 0.000001 -9.027444 -0.000000 1.161730 -0.676249 2.457908 0.000000 -11.606714 -1.160670 -6.514078 0.846599 0.476048 -0.000001 -7.471568 -0.653672 -0.107081 -2.932038 -1.194341 0.000004 -7.386160 -1.302381 6.957726 -0.068935 -1.380054 -0.000002 -9.728111 -0.000005 0.000001 -0.000000 0.000000 0.000002 -8.290504 -5.270929 -0.000013 18.219482 6.446369 -19.261076 -0.000015 -0.000004 -10.344663 -54.638344 -89.430529 -30.691694 -0.000018 -0.000006 -13.659270 -18.694578 -4.453991 -20.216959 -0.000011 0.000002 0.761974 -13.443131 3.274202 -4.948808 2.881327 -3.679875 0.000000 0.000003 -0.000001 -13.196860 -0.000010 0.084600 -0.000004 0.000001 0.000001 0.000002 -8.290501 -5.270929 -0.000008 -8.370401 -4.255917 19.261086 -0.000014 0.000000 -10.456902 34.660738 89.983262 30.691710 -0.000015 -0.000012 16.731243 17.096658 -5.050353 20.216934 -0.000004 -0.000002 -0.073450 -8.883728 -0.475587 4.948807 2.881327 -3.679877 -0.000003 -0.000007 -0.000001 13.196853 -0.000008 0.084602 -0.000000 0.000003 -0.000001 -10.083072 -0.000003 0.000003 15.682647 5.810903 -3.567352 0.000000 47.042519 -0.000010 -5.854242 -0.000001 0.000001 0.000002 38.766426 -0.000008 9.203380 11.603764 -4.261794 0.000001 3.531212 0.000001 0.000001 -0.000004 0.000000 0.000000 0.000013 -13.829350 -6.783422 -0.000000 0.000000 -0.000002 0.000000 -4.034169 -0.000000 0.000000 -0.000000 10.083069 -0.000017 0.000009 6.177113 -6.981420 -4.486686 -0.000001 47.042522 -0.000007 11.756064 -0.000001 -0.000001 0.000003 38.766411 -0.000006 2.713469 -5.069219 7.895489 0.000001 3.531212 0.000015 -0.000000 0.000001 0.000000 0.000001 -0.000000 -13.829354 -0.866025 -0.000001 -0.000001 -0.000002 -0.000000 -4.855068 -0.000000 -0.000000 0.000001 
